<svg width="150" height="150" xmlns="http://www.w3.org/2000/svg">
  <!-- Macrophage cell outline (pseudopods) -->
  <path d="M 75 10 C 100 15, 120 5, 130 30 C 140 55, 150 85, 135 110 C 120 135, 90 145, 65 140 C 40 135, 10 130, 15 100 C 20 70, 5 40, 30 20 C 55 0, 50 5, 75 10 Z" fill="#c084fc" stroke="#7e22ce" stroke-width="4"/>
  <!-- Nucleus -->
  <path d="M 60 60 C 80 50, 95 65, 90 85 C 85 105, 65 100, 55 90 C 45 80, 40 70, 60 60 Z" fill="#a855f7" stroke="#6b21a8" stroke-width="2"/>
  <!-- Vacuoles / Lysosomes -->
  <circle cx="40" cy="45" r="8" fill="#e9d5ff" stroke="#7e22ce" stroke-width="1.5"/>
  <circle cx="105" cy="45" r="6" fill="#e9d5ff" stroke="#7e22ce" stroke-width="1.5"/>
  <circle cx="100" cy="105" r="10" fill="#e9d5ff" stroke="#7e22ce" stroke-width="1.5"/>
</svg>
