<svg xmlns="http://www.w3.org/2000/svg" viewBox="0 0 150 150" xmlns="http://www.w3.org/2000/svg" data-osd-version="1.0.0">
  
  <path d="M 75 10 C 100 15, 120 5, 130 30 C 140 55, 150 85, 135 110 C 120 135, 90 145, 65 140 C 40 135, 10 130, 15 100 C 20 70, 5 40, 30 20 C 55 0, 50 5, 75 10 Z" fill="currentColor" stroke="currentColor" stroke-width="4" data-osd-hook="hook_0000" data-osd-fill-original="#c084fc" data-osd-stroke-original="#7e22ce" />
  
  <path d="M 60 60 C 80 50, 95 65, 90 85 C 85 105, 65 100, 55 90 C 45 80, 40 70, 60 60 Z" fill="currentColor" stroke="currentColor" stroke-width="2" data-osd-hook="hook_0001" data-osd-fill-original="#a855f7" data-osd-stroke-original="#6b21a8" />
  
  <circle cx="40" cy="45" r="8" fill="currentColor" stroke="currentColor" stroke-width="1.5" data-osd-hook="hook_0002" data-osd-fill-original="#e9d5ff" data-osd-stroke-original="#7e22ce" />
  <circle cx="105" cy="45" r="6" fill="currentColor" stroke="currentColor" stroke-width="1.5" data-osd-hook="hook_0003" data-osd-fill-original="#e9d5ff" data-osd-stroke-original="#7e22ce" />
  <circle cx="100" cy="105" r="10" fill="currentColor" stroke="currentColor" stroke-width="1.5" data-osd-hook="hook_0004" data-osd-fill-original="#e9d5ff" data-osd-stroke-original="#7e22ce" />
</svg>