<svg xmlns="http://www.w3.org/2000/svg" viewBox="0 0 120 150" xmlns="http://www.w3.org/2000/svg" data-osd-version="1.0.0">
  
  <path d="M 25 90 L 95 90 L 85 130 L 35 130 Z" fill="currentColor" opacity="0.7" data-osd-hook="hook_0000" data-osd-fill-original="#06b6d4" />
  
  <circle cx="50" cy="110" r="5" fill="currentColor" opacity="0.6" data-osd-hook="hook_0001" data-osd-fill-original="#22d3ee" />
  <circle cx="70" cy="100" r="3" fill="currentColor" opacity="0.6" data-osd-hook="hook_0002" data-osd-fill-original="#22d3ee" />
  <circle cx="60" cy="120" r="4" fill="currentColor" opacity="0.6" data-osd-hook="hook_0003" data-osd-fill-original="#22d3ee" />
  
  <path d="M 40 30 L 40 40 L 20 135 A 10 10 0 0 0 30 145 L 90 145 A 10 10 0 0 0 100 135 L 80 40 L 80 30 M 35 30 L 85 30" fill="none" stroke="currentColor" stroke-width="4" stroke-linejoin="round" stroke-linecap="round" data-osd-hook="hook_0004" data-osd-stroke-original="#475569" />
  
  <line x1="70" y1="60" x2="80" y2="60" stroke="currentColor" stroke-width="2" data-osd-hook="hook_0005" data-osd-stroke-original="#94a3b8" />
  <line x1="68" y1="80" x2="80" y2="80" stroke="currentColor" stroke-width="2" data-osd-hook="hook_0006" data-osd-stroke-original="#94a3b8" />
  <line x1="66" y1="100" x2="80" y2="100" stroke="currentColor" stroke-width="2" data-osd-hook="hook_0007" data-osd-stroke-original="#94a3b8" />
  <line x1="64" y1="120" x2="80" y2="120" stroke="currentColor" stroke-width="2" data-osd-hook="hook_0008" data-osd-stroke-original="#94a3b8" />
</svg>