<svg width="120" height="150" xmlns="http://www.w3.org/2000/svg">
  <!-- Beaker liquid -->
  <path d="M 25 90 L 95 90 L 85 130 L 35 130 Z" fill="#06b6d4" opacity="0.7"/>
  <!-- Liquid bubbles -->
  <circle cx="50" cy="110" r="5" fill="#22d3ee" opacity="0.6"/>
  <circle cx="70" cy="100" r="3" fill="#22d3ee" opacity="0.6"/>
  <circle cx="60" cy="120" r="4" fill="#22d3ee" opacity="0.6"/>
  <!-- Beaker outline -->
  <path d="M 40 30 L 40 40 L 20 135 A 10 10 0 0 0 30 145 L 90 145 A 10 10 0 0 0 100 135 L 80 40 L 80 30 M 35 30 L 85 30" fill="none" stroke="#475569" stroke-width="4" stroke-linejoin="round" stroke-linecap="round"/>
  <!-- Measurement marks -->
  <line x1="70" y1="60" x2="80" y2="60" stroke="#94a3b8" stroke-width="2"/>
  <line x1="68" y1="80" x2="80" y2="80" stroke="#94a3b8" stroke-width="2"/>
  <line x1="66" y1="100" x2="80" y2="100" stroke="#94a3b8" stroke-width="2"/>
  <line x1="64" y1="120" x2="80" y2="120" stroke="#94a3b8" stroke-width="2"/>
</svg>
